Coordinates
version=1
nRows=10
nColumns=40
inDegrees=yes

Units are S.I. units (second, meters, Newtons, ...)
If the header above contains a line with 'inDegrees', this indicates whether rotational values are in degrees (yes) or radians (no).

endheader
time	pelvis_tilt	pelvis_list	pelvis_rotation	pelvis_tx	pelvis_ty	pelvis_tz	hip_flexion_r	hip_adduction_r	hip_rotation_r	knee_angle_r	knee_angle_r_beta	ankle_angle_r	subtalar_angle_r	mtp_angle_r	hip_flexion_l	hip_adduction_l	hip_rotation_l	knee_angle_l	knee_angle_l_beta	ankle_angle_l	subtalar_angle_l	mtp_angle_l	lumbar_extension	lumbar_bending	lumbar_rotation	arm_flex_r	arm_add_r	arm_rot_r	elbow_flex_r	pro_sup_r	wrist_flex_r	wrist_dev_r	arm_flex_l	arm_add_l	arm_rot_l	elbow_flex_l	pro_sup_l	wrist_flex_l	wrist_dev_l
      4.32500000	    -28.95926437	     -0.40042365	      4.55879049	     -0.30610418	      0.80943326	     -1.05435070	     31.31917347	     -7.35602773	    -11.86603491	    100.21115688	      1.74901463	    -18.22020038	      0.00000000	      0.00000000	     70.62413036	      4.17302812	     -6.91692223	     78.86206001	      1.37640260	     25.32531479	      0.00000000	      0.00000000	     -0.76371089	     -3.75519076	     -1.78564726	     89.75798149	    -21.11890906	     24.07859911	     55.06248863	     86.03288876	      0.00000000	      0.00000000	     89.92319141	    -21.11276127	     27.93505791	     56.25887510	     84.30778203	      0.00000000	      0.00000000
      4.33000000	    -28.52805733	     -0.03023645	      4.47800958	     -0.30477684	      0.81190832	     -1.05464954	     30.90981196	     -7.75296678	    -11.66781815	    100.17325702	      1.74835316	    -18.22266705	      0.00000000	      0.00000000	     69.80244543	      4.33939974	     -7.18385208	     78.39926046	      1.36832523	     25.24578459	      0.00000000	      0.00000000	     -1.07720038	     -4.11263925	     -1.70503170	     89.75010088	    -21.24990863	     24.46755634	     54.96944418	     86.01198345	      0.00000000	      0.00000000	     89.92330065	    -21.18903151	     28.34885473	     56.22303528	     84.28857379	      0.00000000	      0.00000000
      4.33500000	    -28.56424409	     -0.30923584	      4.48226758	     -0.30495983	      0.81349796	     -1.05402333	     31.16649392	     -7.43751186	    -11.84124191	    100.25987684	      1.74986496	    -18.21214709	      0.00000000	      0.00000000	     69.72647676	      4.15506907	     -6.93672684	     78.08440053	      1.36282988	     25.14875862	      0.00000000	      0.00000000	     -0.93641947	     -3.85213134	     -1.73035572	     89.74427234	    -21.26831961	     24.50739457	     54.98322587	     85.99743570	      0.00000000	      0.00000000	     89.92318927	    -21.24282347	     28.35252858	     56.27797786	     84.27511630	      0.00000000	      0.00000000
      4.34000000	    -28.49071895	     -0.45871380	      4.51439903	     -0.30462151	      0.81537463	     -1.05400033	     31.21333669	     -7.29589435	    -11.90651590	    100.20646161	      1.74893269	    -18.22416407	      0.00000000	      0.00000000	     69.49593682	      4.15712799	     -6.67110872	     77.78698924	      1.35763908	     24.99117503	      0.00000000	      0.00000000	     -0.88465241	     -3.67269055	     -1.73493065	     89.73693930	    -21.34429735	     24.64432434	     54.94813238	     85.98575475	      0.00000000	      0.00000000	     89.92210115	    -21.27753100	     28.56610949	     56.28772839	     84.27093761	      0.00000000	      0.00000000
      4.34500000	    -28.37929135	     -0.57925291	      4.47945631	     -0.30432913	      0.81727082	     -1.05356365	     31.27279146	     -7.14908597	    -12.00308596	    100.25730275	      1.74982003	    -18.20436827	      0.00000000	      0.00000000	     69.21641719	      4.04328910	     -6.53505340	     77.49809119	      1.35259686	     24.86793448	      0.00000000	      0.00000000	     -0.87207803	     -3.55562655	     -1.70880262	     89.72578614	    -21.36063178	     24.74677571	     54.92385480	     85.98186285	      0.00000000	      0.00000000	     89.92186212	    -21.32004144	     28.67481521	     56.27610396	     84.26873615	      0.00000000	      0.00000000
      4.35000000	    -28.21617245	     -0.70809477	      4.51659755	     -0.30368635	      0.81922206	     -1.05346384	     31.17197033	     -7.02100737	    -12.10513372	    100.17659449	      1.74841141	    -18.22377358	      0.00000000	      0.00000000	     68.86238961	      4.01918583	     -6.34847175	     77.21703718	      1.34769154	     24.70084345	      0.00000000	      0.00000000	     -0.88245671	     -3.41275562	     -1.72828043	     89.72525392	    -21.48257803	     25.11760417	     54.84286075	     85.96355597	      0.00000000	      0.00000000	     89.92121709	    -21.38776647	     29.00870724	     56.27745017	     84.25756319	      0.00000000	      0.00000000
      4.35500000	    -28.14438925	     -0.76172189	      4.44712780	     -0.30325649	      0.82118680	     -1.05318490	     31.26259152	     -6.93011526	    -12.11930498	    100.18812289	      1.74861262	    -18.21234416	      0.00000000	      0.00000000	     68.58177656	      3.95330389	     -6.24326854	     76.85594270	      1.34138925	     24.59074819	      0.00000000	      0.00000000	     -0.85330519	     -3.34972336	     -1.65368553	     89.71137813	    -21.50363478	     25.18865418	     54.85689813	     85.95208314	      0.00000000	      0.00000000	     89.92025616	    -21.44248256	     29.10489004	     56.30416671	     84.25264245	      0.00000000	      0.00000000
      4.36000000	    -27.86241696	     -0.69536564	      4.47574709	     -0.30252659	      0.82344673	     -1.05332218	     31.04411131	     -7.02094426	    -12.10365793	    100.14302683	      1.74782554	    -18.26125837	      0.00000000	      0.00000000	     68.02589176	      4.04429668	     -6.21509280	     76.45475135	      1.33438714	     24.45288660	      0.00000000	      0.00000000	     -1.03548740	     -3.39850332	     -1.69732794	     89.70569351	    -21.59582681	     25.41514959	     54.81271294	     85.94146704	      0.00000000	      0.00000000	     89.91961260	    -21.47887970	     29.30395242	     56.28310029	     84.24868033	      0.00000000	      0.00000000
      4.36500000	    -27.81371918	     -0.80436343	      4.42537376	     -0.30227480	      0.82520999	     -1.05285544	     31.16690858	     -6.91446398	    -12.20048255	    100.22326608	      1.74922598	    -18.25955211	      0.00000000	      0.00000000	     67.82200312	      3.90838844	     -6.13837441	     76.16896538	      1.32939923	     24.37855040	      0.00000000	      0.00000000	     -0.95850996	     -3.30202778	     -1.63172636	     89.69211790	    -21.63061785	     25.46350826	     54.80681602	     85.93579695	      0.00000000	      0.00000000	     89.91868759	    -21.49699599	     29.37124936	     56.29978113	     84.24793100	      0.00000000	      0.00000000
      4.37000000	    -27.63576794	     -0.79727338	      4.41419465	     -0.30171601	      0.82738692	     -1.05292312	     31.11669767	     -6.91594704	    -12.17726037	    100.18930796	      1.74863330	    -18.26060076	      0.00000000	      0.00000000	     67.38662660	      3.95385152	     -6.04208950	     75.72891684	      1.32171894	     24.22472491	      0.00000000	      0.00000000	     -1.03503751	     -3.28193137	     -1.61131716	     89.67738715	    -21.71575239	     25.66448312	     54.77819883	     85.93556880	      0.00000000	      0.00000000	     89.91821327	    -21.54401132	     29.58597866	     56.28706307	     84.25454889	      0.00000000	      0.00000000
